<svg width="36" height="36" viewBox="0 0 36 36" fill="none" xmlns="http://www.w3.org/2000/svg">
<rect x="0.5" y="0.5" width="35" height="35" rx="7.5" fill="#007ACC"/>
<rect x="0.5" y="0.5" width="35" height="35" rx="7.5" stroke="#003F6A"/>
<path d="M24.8495 11.2131C25.5943 11.3864 26.2712 11.7764 26.7946 12.334C27.0829 12.6357 27.3333 12.9716 27.5401 13.3341C27.5497 13.3735 26.1978 14.2817 25.378 14.7884C25.3482 14.8085 25.2301 14.6799 25.0962 14.4821C24.9464 14.2247 24.7338 14.0094 24.4783 13.8564C24.2228 13.7033 23.9326 13.6176 23.635 13.6071C22.6926 13.5424 22.0853 14.0359 22.0897 14.861C22.0816 15.0637 22.1278 15.2649 22.2236 15.4437C22.431 15.8725 22.816 16.1297 24.0252 16.6539C26.2512 17.612 27.2067 18.2437 27.7965 19.1415C28.1298 19.7087 28.3351 20.342 28.398 20.9969C28.4609 21.6518 28.3798 22.3126 28.1605 22.9329C27.859 23.6131 27.381 24.2003 26.776 24.6334C26.171 25.0665 25.4611 25.3298 24.72 25.396C23.9322 25.4864 23.1362 25.4781 22.3505 25.3715C21.1469 25.1737 20.0382 24.5961 19.1865 23.723C18.8646 23.3606 18.5922 22.9572 18.3762 22.5234C18.467 22.4558 18.5626 22.395 18.6623 22.3414C18.8006 22.2626 19.3238 21.9616 19.8173 21.6755L20.7133 21.1505L20.9006 21.4235C21.216 21.8745 21.6174 22.2587 22.0818 22.554C22.5509 22.8113 23.0821 22.9332 23.6164 22.9061C24.1507 22.8791 24.6669 22.7042 25.1076 22.4009C25.3349 22.1793 25.477 21.8848 25.509 21.569C25.541 21.2532 25.4608 20.9363 25.2826 20.6736C25.0411 20.328 24.5476 20.0375 23.145 19.4294C22.0451 19.0585 21.0434 18.4438 20.2146 17.6312C19.8199 17.1815 19.5284 16.6508 19.3606 16.0764C19.2365 15.422 19.2182 14.752 19.3063 14.0919C19.471 13.3322 19.8652 12.6416 20.4355 12.1135C21.0059 11.5854 21.7248 11.2454 22.4948 11.1396C23.279 11.0459 24.0727 11.0707 24.8495 11.2131ZM17.5493 12.5107L17.559 13.783H13.5077V25.2875H10.6508V13.7856H6.59958V12.5361C6.58881 12.1082 6.60049 11.68 6.63458 11.2534C6.64946 11.2332 9.11258 11.2236 12.099 11.2289L17.5336 11.2437L17.5493 12.5107Z" fill="white"/>
</svg>
